<svg width="304" height="423" viewBox="0 0 304 423" fill="none" xmlns="http://www.w3.org/2000/svg">
<g filter="url(#filter0_ii_18_117)">
<path d="M131.5 116C176.957 97.817 246.809 32.5668 278 2.0046C282.399 -2.30584 289.89 2.00257 288.358 7.96786L261 114.5L297.828 25.2316C299.552 21.0536 304.136 22.2853 303.398 26.7441L303.072 28.7079C296.022 71.2648 282.416 153.393 287 193.5C301.5 251 278.5 364 225 400C205.752 412.952 131.883 438.609 74.5 408.5C48.731 394.979 24.6543 376.845 8.99996 330.5C-29 218 71.5 140 131.5 116Z" fill="url(#paint0_linear_18_117)"/>
</g>
<defs>
<filter id="filter0_ii_18_117" x="-2.35693" y="0.258057" width="307.834" height="429.305" filterUnits="userSpaceOnUse" color-interpolation-filters="sRGB">
<feFlood flood-opacity="0" result="BackgroundImageFix"/>
<feBlend mode="normal" in="SourceGraphic" in2="BackgroundImageFix" result="shape"/>
<feColorMatrix in="SourceAlpha" type="matrix" values="0 0 0 0 0 0 0 0 0 0 0 0 0 0 0 0 0 0 127 0" result="hardAlpha"/>
<feOffset dx="2" dy="7"/>
<feGaussianBlur stdDeviation="4"/>
<feComposite in2="hardAlpha" operator="arithmetic" k2="-1" k3="1"/>
<feColorMatrix type="matrix" values="0 0 0 0 1 0 0 0 0 1 0 0 0 0 1 0 0 0 0.4 0"/>
<feBlend mode="normal" in2="shape" result="effect1_innerShadow_18_117"/>
<feColorMatrix in="SourceAlpha" type="matrix" values="0 0 0 0 0 0 0 0 0 0 0 0 0 0 0 0 0 0 127 0" result="hardAlpha"/>
<feOffset dx="-3"/>
<feGaussianBlur stdDeviation="2.5"/>
<feComposite in2="hardAlpha" operator="arithmetic" k2="-1" k3="1"/>
<feColorMatrix type="matrix" values="0 0 0 0 0 0 0 0 0 0 0 0 0 0 0 0 0 0 0.25 0"/>
<feBlend mode="normal" in2="effect1_innerShadow_18_117" result="effect2_innerShadow_18_117"/>
</filter>
<linearGradient id="paint0_linear_18_117" x1="282.5" y1="2.00008" x2="69.5001" y2="420.5" gradientUnits="userSpaceOnUse">
<stop stop-color="#DB9D24"/>
<stop offset="1" stop-color="#F00C0C"/>
</linearGradient>
</defs>
</svg>
